<?xml version="1.0" standalone="no"?><!DOCTYPE svg PUBLIC "-//W3C//DTD SVG 1.1//EN" "http://www.w3.org/Graphics/SVG/1.1/DTD/svg11.dtd"><svg t="1645932349653" class="icon" viewBox="0 0 1024 1024" version="1.1" xmlns="http://www.w3.org/2000/svg" p-id="5363" xmlns:xlink="http://www.w3.org/1999/xlink" width="128" height="128"><defs><style type="text/css"></style></defs><path d="M877.89 704c22.092 0 40-17.908 40-40V160c0-88.224-71.776-160-160-160H266.112c-88.224 0-160 71.776-160 160v704c0 88.224 71.776 160 160 160h491.778c88.224 0 160-71.776 160-160 0-22.092-17.908-40-40-40s-40 17.908-40 40c0 44.112-35.888 80-80 80H266.112c-44.112 0-80-35.888-80-80V160c0-44.112 35.888-80 80-80h491.776c44.112 0 80 35.888 80 80v504c0 22.092 17.91 40 40.002 40z" p-id="5364" fill="#ffffff"></path><path d="M445.888 678c22.092 0 40-17.908 40-40v-170c0-66.168-53.832-120-120-120s-120 53.832-120 120v170c0 22.092 17.908 40 40 40s40-17.908 40-40v-58h80v58c0 22.092 17.908 40 40 40z m-120-178v-32c0-22.056 17.944-40 40-40s40 17.944 40 40v32h-80zM657.888 632c22.092 0 40-17.908 40-40v-40h40c22.092 0 40-17.908 40-40s-17.908-40-40-40h-40v-40c0-22.092-17.908-40-40-40s-40 17.908-40 40v40h-40c-22.092 0-40 17.908-40 40s17.908 40 40 40h40v40c0 22.092 17.908 40 40 40z" p-id="5365" fill="#ffffff"></path></svg>