<?xml version="1.0" standalone="no"?><!DOCTYPE svg PUBLIC "-//W3C//DTD SVG 1.1//EN" "http://www.w3.org/Graphics/SVG/1.1/DTD/svg11.dtd"><svg t="1645932525224" class="icon" viewBox="0 0 1024 1024" version="1.1" xmlns="http://www.w3.org/2000/svg" p-id="10021" xmlns:xlink="http://www.w3.org/1999/xlink" width="128" height="128"><defs><style type="text/css"></style></defs><path d="M823.808 670.208c17.408-98.304-13.824-202.752-92.16-277.504-124.416-118.784-320.512-118.784-444.928 0-77.824 74.24-108.032 177.664-90.624 275.456M496.64 138.24c16.384 0 27.648 11.264 27.648 27.648v55.296c0 16.384-11.264 27.648-27.648 27.648s-27.648-11.264-27.648-27.648v-55.296c0-16.384 11.264-27.648 27.648-27.648z m343.04 126.976c11.264 11.264 11.264 27.648 0 38.912l-38.912 38.912c-11.264 11.264-27.648 11.264-38.912 0s-11.264-27.648 0-38.912l38.912-38.912c11.264-10.752 27.648-10.752 38.912 0zM231.424 343.04c-11.264 11.264-27.648 11.264-38.912 0L153.6 304.128c-11.264-11.264-11.264-27.648 0-38.912s27.648-11.264 38.912 0l38.912 38.912c10.752 11.264 10.752 27.648 0 38.912z" fill="#FFB83C" p-id="10022"></path><path d="M954.88 711.68H67.584c-22.016 0-39.936-17.92-39.936-39.936s17.92-39.936 39.936-39.936H954.88c22.016 0 39.936 17.92 39.936 39.936s-17.92 39.936-39.936 39.936zM809.984 885.76H185.856c-22.016 0-39.936-17.92-39.936-39.936s17.92-39.936 39.936-39.936h623.616c22.016 0 39.936 17.92 39.936 39.936 0.512 22.016-17.408 39.936-39.424 39.936z" fill="#08C6F2" p-id="10023"></path></svg>