<?xml version="1.0" encoding="UTF-8"?>
<svg width="80px" height="12px" viewBox="0 0 80 12" version="1.1" xmlns="http://www.w3.org/2000/svg" xmlns:xlink="http://www.w3.org/1999/xlink">
    <title>编组 8</title>
    <g id="feature-store" stroke="none" stroke-width="1" fill="none" fill-rule="evenodd">
        <g id="feature-store-加载中" transform="translate(-920.000000, -1450.000000)" fill="#FFFFFF">
            <g id="编组-8" transform="translate(920.688243, 1450.000000)">
                <path d="M7.74696743,0 L7.74696743,9.81815546 L3.3201275,9.81815546 L3.3201275,11.9999034 L0,11.9999034 L0,0 L7.74696743,0 Z M4.42683993,3.27270882 L3.3201177,3.27270882 L3.3201177,6.54540798 L4.42683993,6.54540798 L4.42683993,3.27270882 Z" id="形状结合" fill-opacity="0.2"></path>
                <polygon id="XMLID_100_-path" fill-opacity="0.12" points="8.85367987 11.9999034 8.85367987 3.53906839e-05 12.1738074 3.53906839e-05 12.1738074 11.9999034"></polygon>
                <polygon id="XMLID_100_-path" fill-opacity="0.12" points="21.0509974 3.53906839e-05 21.0509974 5.4545437 19.9443144 5.4545437 19.9443144 6.54544664 21.0509974 6.54544664 21.0509974 11.9999034 17.7309483 11.9999034 17.7309483 8.72724286 16.6241673 8.72724286 16.6241673 11.9999034 13.3040201 11.9999034 13.3040201 6.54544664 14.4108012 6.54544664 14.4108012 5.4545437 13.3040201 5.4545437 13.3040201 3.53906839e-05 16.6241673 3.53906839e-05 16.6241673 3.27273782 17.7309483 3.27273782 17.7309483 3.53906839e-05"></polygon>
                <polygon id="XMLID_100_-path" fill-opacity="0.12" points="22.1577784 11.9999034 22.1577784 3.53906839e-05 29.9047557 3.53906839e-05 29.9047557 3.27273782 25.4779256 3.27273782 25.4779256 4.36364076 29.9047557 4.36364076 29.9047557 7.63634958 25.4779256 7.63634958 25.4779256 8.72725252 29.9047557 8.72725252 29.9047557 12 22.1577784 12"></polygon>
                <polygon id="XMLID_100_-path" fill-opacity="0.12" points="31.0114387 11.9999034 31.0114387 3.53906839e-05 34.3315858 3.53906839e-05 34.3315858 8.72724286 36.5449519 8.72724286 36.5449519 11.9999034"></polygon>
                <polygon id="XMLID_100_-path" fill-opacity="0.12" points="45.3987102 3.53906839e-05 45.3987102 5.4545437 42.0785631 5.4545437 42.0785631 3.27273782 40.97188 3.27273782 40.97188 8.72724286 42.0785631 8.72724286 42.0785631 6.54544664 45.3987102 6.54544664 45.3987102 11.9999034 37.6517329 11.9999034 37.6517329 3.53906839e-05"></polygon>
                <polygon id="XMLID_100_-path" fill-opacity="0.12" points="46.5053932 11.9999034 46.5053932 3.53906839e-05 49.8255403 3.53906839e-05 49.8255403 8.72724286 52.0389063 8.72724286 52.0389063 11.9999034"></polygon>
                <path d="M60.9161944,3.53906839e-05 L60.9161944,11.9999034 L53.1692172,11.9999034 L53.1692172,3.53906839e-05 L60.9161944,3.53906839e-05 Z M57.5959492,3.27270882 L56.4892662,3.27270882 L56.4892662,8.7272042 L57.5959492,8.7272042 L57.5959492,3.27270882 Z" id="形状结合" fill-opacity="0.12"></path>
                <polygon id="XMLID_100_-path" fill-opacity="0.12" points="69.7698547 3.53906839e-05 69.7698547 11.9999034 62.0228774 11.9999034 62.0228774 3.53906839e-05 65.3430245 3.53906839e-05 65.3430245 8.72724286 66.4497075 8.72724286 66.4497075 3.53906839e-05"></polygon>
                <path d="M77.5168319,3.53906839e-05 L77.5168319,1.0909416 L78.6235149,1.0909416 L78.6235149,10.9090294 L77.5168319,10.9090294 L77.5168319,11.9999034 L70.8765377,11.9999034 L70.8765377,3.53906839e-05 L77.5168319,3.53906839e-05 Z M75.3033678,3.27270882 L74.1966848,3.27270882 L74.1966848,8.7272042 L75.3033678,8.7272042 L75.3033678,3.27270882 Z" id="形状结合" fill-opacity="0.12"></path>
            </g>
        </g>
    </g>
</svg>