<?xml version="1.0" standalone="no"?><!DOCTYPE svg PUBLIC "-//W3C//DTD SVG 1.1//EN" "http://www.w3.org/Graphics/SVG/1.1/DTD/svg11.dtd"><svg t="1645932448730" class="icon" viewBox="0 0 1024 1024" version="1.1" xmlns="http://www.w3.org/2000/svg" p-id="7849" xmlns:xlink="http://www.w3.org/1999/xlink" width="128" height="128"><defs><style type="text/css"></style></defs><path d="M512 0a38.4 38.4 0 0 1 38.4 38.4v76.8a38.4 38.4 0 0 1-76.8 0v-76.8A38.4 38.4 0 0 1 512 0z m0 870.4a38.4 38.4 0 0 1 38.4 38.4v76.8a38.4 38.4 0 0 1-76.8 0v-76.8a38.4 38.4 0 0 1 38.4-38.4z m396.8-396.8h76.8a38.4 38.4 0 0 1 0 76.8h-76.8a38.4 38.4 0 0 1 0-76.8z m-870.4 0h76.8a38.4 38.4 0 0 1 0 76.8h-76.8a38.4 38.4 0 0 1 0-76.8z m835.6352-323.6352a38.4 38.4 0 0 1 0 54.2976l-54.2976 54.30784a38.4 38.4 0 1 1-54.30784-54.30784l54.30784-54.2976a38.4 38.4 0 0 1 54.2976 0zM258.56 765.44a38.4 38.4 0 0 1 0 54.30784l-54.30784 54.30272a38.4 38.4 0 0 1-54.31296-54.30272L204.25216 765.44a38.4 38.4 0 0 1 54.30272 0h0.00512z m561.16736 0l54.29248 54.30784a38.4 38.4 0 1 1-54.29248 54.30272l-54.31296-54.30272a38.40512 38.40512 0 1 1 54.3232-54.30784h-0.01024zM204.2624 149.9648l54.30784 54.2976a38.4 38.4 0 1 1-54.30784 54.30784L149.95456 204.2624A38.4 38.4 0 1 1 204.2624 149.9648zM256 512c0 141.38368 114.61632 256 256 256s256-114.61632 256-256-114.61632-256-256-256-256 114.61632-256 256z" fill="#FFBB12" p-id="7850"></path></svg>