<?xml version="1.0" standalone="no"?><!DOCTYPE svg PUBLIC "-//W3C//DTD SVG 1.1//EN" "http://www.w3.org/Graphics/SVG/1.1/DTD/svg11.dtd"><svg t="1645931885352" class="icon" viewBox="0 0 1025 1024" version="1.1" xmlns="http://www.w3.org/2000/svg" p-id="2735" xmlns:xlink="http://www.w3.org/1999/xlink" width="128.125" height="128"><defs><style type="text/css"></style></defs><path d="M916.32448 473.6c104.533333 72.533333 115.2 134.4 104.533333 172.8-10.666667 38.4-49.066667 85.333333-177.066666 96C769.12448 853.333333 647.52448 917.333333 513.12448 917.333333c-211.2 0-384-160-403.2-366.933333-106.666667-72.533333-117.333333-134.4-106.666667-172.8 10.666667-38.4 49.066667-85.333333 177.066667-96C254.991147 172.8 378.72448 106.666667 513.12448 106.666667c211.2 0 384 162.133333 403.2 366.933333z m23.466667 151.466667c2.133333-6.4-4.266667-21.333333-27.733334-44.8-4.266667 19.2-21.333333 34.133333-42.666666 34.133333h-6.4c-23.466667-4.266667-38.4-25.6-34.133334-49.066667 2.133333-17.066667 4.266667-36.266667 4.266667-53.333333 0-177.066667-142.933333-320-320-320-113.066667 0-213.333333 57.6-270.933333 151.466667-12.8 19.2-23.466667 40.533333-29.866667 64-8.533333 21.333333-32 34.133333-53.333333 25.6-21.333333-8.533333-34.133333-32-25.6-53.333334 0-2.133333 2.133333-2.133333 2.133333-4.266666-29.866667 8.533333-42.666667 19.2-44.8 25.6-2.133333 10.666667 14.933333 44.8 87.466667 91.733333 76.8 49.066667 189.866667 96 309.333333 128 121.6 32 243.2 46.933333 334.933333 42.666667 81.066667-8.533333 115.2-29.866667 117.333334-38.4zM513.12448 832c83.2 0 160-32 219.733333-87.466667-83.2-4.266667-174.933333-19.2-270.933333-44.8-93.866667-25.6-181.333333-57.6-253.866667-93.866666C248.591147 738.133333 368.057813 832 513.12448 832z m130.133333-541.866667c-21.333333-12.8-46.933333-4.266667-57.6 14.933334-12.8 21.333333-4.266667 46.933333 14.933334 57.6 51.2 29.866667 85.333333 87.466667 85.333333 147.2 0 23.466667 19.2 42.666667 42.666667 42.666666s42.666667-19.2 42.666666-42.666666c-2.133333-89.6-51.2-172.8-128-219.733334" fill="#5975FF" p-id="2736"></path></svg>